<svg xmlns="http://www.w3.org/2000/svg" xmlns:xlink="http://www.w3.org/1999/xlink" version="1.1" x="0px" y="0px" viewBox="0 0 90 112.5" style="enable-background:new 0 0 90 90;" xml:space="preserve"><path d="M84.8654251,44.0700073l-4.4332733-15.2030964c-1.2366409-4.2399311-5.1832504-7.1998787-9.5998459-7.1998787h-5.833252  v-4.166605c0-5.0565882-4.1099243-9.1665258-9.1665115-9.1665258H12.4998817c-2.2966309,0-4.1665945,1.8699732-4.1665945,4.166604  c0,1.0366468,0.3833237,2.0299692,1.1499796,2.8732805l8.8513603,8.9839373L6.1766438,54.8998375  C5.3966556,57.0664673,5,59.3430977,5,61.6663933c0,11.0298347,8.9698524,19.9997063,19.9996853,19.9997063h33.3328094  c11.0298271,0,19.9996834-8.9698715,19.9996834-19.9997063c0-2.3232956-0.3966522-4.599926-1.2133102-6.8732224  L66.5810928,28.3335876h4.2512131c1.4699707,0,2.7866211,0.9866562,3.2032852,2.3966312l4.4332581,15.1997547  c0.4233246,1.4566498,1.7533035,2.4033012,3.1966171,2.4033012c0.3066711,0,0.6233215-0.043335,0.9333191-0.1299934  C84.3654251,47.686615,85.3820801,45.8366508,84.8654251,44.0700073z M62.6057549,52.4798698  c-1.7566414,1.5166435-2.9166145,2.5199585-5.5299072,2.5199585c-2.6166344,0-3.7766151-1.003315-5.5332489-2.5199585  c-2.1366348-1.8499641-4.7965889-4.146595-9.8931847-4.146595c-5.0932465,0-7.753212,2.2966309-9.8865089,4.146595  c-1.7566414,1.5166435-2.9166145,2.5199585-5.5265808,2.5199585c-2.6099548,0-3.7666016-1.003315-5.5199127-2.5199585  c-1.3333111-1.1533089-2.8699532-2.4866295-5.079915-3.3199463l8.2898741-20.8263359h35.4794388l8.2932053,20.8230095  C65.4857101,49.9932518,63.9424019,51.3232231,62.6057549,52.4798698z"/><text x="0" y="105" fill="#000000" font-size="5px" font-weight="bold" font-family="'Helvetica Neue', Helvetica, Arial-Unicode, Arial, Sans-serif">Created by lela sari</text><text x="0" y="110" fill="#000000" font-size="5px" font-weight="bold" font-family="'Helvetica Neue', Helvetica, Arial-Unicode, Arial, Sans-serif">from the Noun Project</text></svg>