<svg xmlns="http://www.w3.org/2000/svg" viewBox="0 0 24 30" fill="none" x="0px" y="0px"><path fill-rule="evenodd" clip-rule="evenodd" d="M6.29289 8.70711C6.68342 9.09763 7.31658 9.09763 7.70711 8.70711L11 5.41421L11 15C11 15.5523 11.4477 16 12 16C12.5523 16 13 15.5523 13 15L13 5.41421L16.2929 8.70711C16.6834 9.09763 17.3166 9.09763 17.7071 8.70711C18.0976 8.31658 18.0976 7.68342 17.7071 7.29289L12.7071 2.29289C12.3166 1.90237 11.6834 1.90237 11.2929 2.29289L6.29289 7.29289C5.90237 7.68342 5.90237 8.31658 6.29289 8.70711ZM4 13C4 12.4477 3.55228 12 3 12C2.44772 12 2 12.4477 2 13L2 19C2 20.6569 3.34315 22 5 22L19 22C20.6569 22 22 20.6569 22 19L22 13C22 12.4477 21.5523 12 21 12C20.4477 12 20 12.4477 20 13L20 19C20 19.5523 19.5523 20 19 20L5 20C4.44772 20 4 19.5523 4 19V13Z" fill="black"/><text x="0" y="39" fill="#000000" font-size="5px" font-weight="bold" font-family="'Helvetica Neue', Helvetica, Arial-Unicode, Arial, Sans-serif">Created by Cetha Studio</text><text x="0" y="44" fill="#000000" font-size="5px" font-weight="bold" font-family="'Helvetica Neue', Helvetica, Arial-Unicode, Arial, Sans-serif">from the Noun Project</text></svg>