<svg xmlns="http://www.w3.org/2000/svg" viewBox="0 0 24 30" fill="none" x="0px" y="0px"><path fill-rule="evenodd" clip-rule="evenodd" d="M2 4V20C2 21.1046 2.89543 22 4 22H6V13C6 12.4477 6.44772 12 7 12H17C17.5523 12 18 12.4477 18 13V22H20C21.1046 22 22 21.1046 22 20V6L18 2H16V5C16 5.55228 15.5523 6 15 6H7C6.44772 6 6 5.55228 6 5V2H4C2.89543 2 2 2.89543 2 4ZM11 3.5V2.5C11 2.22386 11.2239 2 11.5 2H13.5C13.7761 2 14 2.22386 14 2.5V3.5C14 3.77614 13.7761 4 13.5 4H11.5C11.2239 4 11 3.77614 11 3.5ZM8 14.5V15.5C8 15.7761 8.22386 16 8.5 16H15.5C15.7761 16 16 15.7761 16 15.5V14.5C16 14.2239 15.7761 14 15.5 14H8.5C8.22386 14 8 14.2239 8 14.5ZM8 18.5V19.5C8 19.7761 8.22386 20 8.5 20H15.5C15.7761 20 16 19.7761 16 19.5V18.5C16 18.2239 15.7761 18 15.5 18H8.5C8.22386 18 8 18.2239 8 18.5Z" fill="black"/><text x="0" y="39" fill="#000000" font-size="5px" font-weight="bold" font-family="'Helvetica Neue', Helvetica, Arial-Unicode, Arial, Sans-serif">Created by Cetha Studio</text><text x="0" y="44" fill="#000000" font-size="5px" font-weight="bold" font-family="'Helvetica Neue', Helvetica, Arial-Unicode, Arial, Sans-serif">from the Noun Project</text></svg>