<svg xmlns="http://www.w3.org/2000/svg" viewBox="0 0 24 30" fill="none" x="0px" y="0px"><path fill-rule="evenodd" clip-rule="evenodd" d="M7.00001 2C5.89544 2 5.00001 2.89543 5.00001 4L5 20.9981C5 21.593 5.48589 21.9971 6 22C6.22422 22.0013 6.4538 21.9262 6.65079 21.7573L11.3492 18.2407C11.5365 18.0802 11.7682 18 12 18C12.2318 18 12.4635 18.0802 12.6508 18.2407L17.3492 21.7573C17.5462 21.9262 17.7758 22.0013 18 22C18.5141 21.9971 19 21.593 19 20.9981V4C19 2.89543 18.1046 2 17 2H7.00001ZM11 7V9H9C8.44771 9 8 9.44772 8 10C8 10.5523 8.44771 11 9 11H11V13C11 13.5523 11.4477 14 12 14C12.5523 14 13 13.5523 13 13V11H15C15.5523 11 16 10.5523 16 10C16 9.44772 15.5523 9 15 9H13V7C13 6.44772 12.5523 6 12 6C11.4477 6 11 6.44772 11 7Z" fill="black"/><text x="0" y="39" fill="#000000" font-size="5px" font-weight="bold" font-family="'Helvetica Neue', Helvetica, Arial-Unicode, Arial, Sans-serif">Created by Cetha Studio</text><text x="0" y="44" fill="#000000" font-size="5px" font-weight="bold" font-family="'Helvetica Neue', Helvetica, Arial-Unicode, Arial, Sans-serif">from the Noun Project</text></svg>